<svg xmlns="http://www.w3.org/2000/svg" xmlns:xlink="http://www.w3.org/1999/xlink" viewBox="23.96 11.93 55.21 70.29">
	<g fill="#000000">
		<path xmlns="http://www.w3.org/2000/svg" d="M 79.174 16.582 C 79.197 16.029 79.004 15.5 78.631 15.092 L 78.07 14.48 C 77.677 14.054 77.121 13.81 76.543 13.81 C 76.025 13.81 75.527 14.003 75.145 14.355 L 64.125 24.47 C 65.207 24.304 63.293 19.756 60.378 20.205 C 58.073 16.609 54.605 13.965 50.513 12.713 C 50.097 12.586 49.654 12.471 49.195 12.367 C 47.898 12.076 46.57 11.928 45.247 11.928 C 44.966 11.928 44.665 11.938 44.327 11.953 C 43.6 11.99 42.884 12.083 42.193 12.187 C 40.169 12.493 38.661 12.734 36.303 14.312 L 36.281 14.326 C 33.353 13.382 30.851 14.623 29.574 16.86 C 28.197 19.273 28.246 22.784 30.725 24.271 C 26.824 25.375 23.962 28.96 23.962 33.216 C 23.962 37.032 26.262 40.31 29.549 41.743 L 29.881 44.905 L 30.42 50.05 L 30.856 54.187 L 31.406 59.429 L 31.78 62.986 C 31.786 63.035 31.8 63.08 31.817 63.123 C 32.299 65.594 36.524 67.121 41.355 67.637 L 41.355 72.641 L 40.323 72.641 C 36.67 72.641 33.729 75.616 33.696 79.27 C 33.661 83.165 56.576 83.228 55.934 79.27 C 55.349 75.662 52.961 72.641 49.305 72.641 L 48.274 72.641 L 48.274 67.686 C 53.303 67.223 57.799 65.68 58.303 63.127 C 58.323 63.084 58.334 63.035 58.342 62.986 L 58.68 59.756 L 59.217 54.594 L 59.664 50.303 L 60.197 45.198 L 60.527 42.028 C 64.203 40.786 66.849 37.313 66.849 33.217 C 66.849 31.877 66.564 30.602 66.052 29.449 L 78.505 18.019 C 78.914 17.645 79.15 17.135 79.174 16.582 Z M 49.305 74.938 C 51.297 74.938 53.064 76.266 53.481 78.12 C 53.954 80.222 36.942 80.722 36.146 78.12 C 36.652 76.288 38.333 74.938 40.322 74.938 L 42.533 74.938 C 42.868 74.938 43.188 74.792 43.406 74.536 C 43.624 74.282 43.719 73.944 43.668 73.612 C 43.656 73.54 43.651 73.481 43.651 73.432 L 43.651 67.957 L 45.977 67.957 L 45.977 73.432 C 45.977 73.481 45.971 73.539 45.959 73.612 C 45.907 73.944 46.003 74.282 46.222 74.536 C 46.441 74.792 46.759 74.938 47.095 74.938 L 49.305 74.938 Z M 56.301 61.619 C 56.264 61.685 56.238 61.76 56.229 61.842 L 56.118 62.676 C 56.003 63.547 52.104 65.592 45.068 65.592 C 38.032 65.592 34.133 63.547 34.016 62.666 L 33.891 61.828 C 33.883 61.773 33.867 61.721 33.844 61.67 L 33.704 60.274 C 36.545 61.061 40.732 61.561 45.405 61.561 C 49.711 61.561 53.608 61.137 56.414 60.454 L 56.301 61.619 Z M 56.916 55.4 C 54.078 56.158 49.973 56.634 45.405 56.634 C 40.448 56.634 36.036 56.071 33.2 55.198 L 32.756 50.731 C 35.911 51.463 40.41 51.924 45.405 51.924 C 50.047 51.924 54.258 51.528 57.363 50.883 L 56.916 55.4 Z M 57.861 45.85 C 54.716 46.559 50.298 46.996 45.404 46.996 C 40.136 46.996 35.424 46.486 32.254 45.683 L 31.93 42.42 C 32.366 42.483 32.809 42.516 33.262 42.516 C 35.583 42.516 37.703 41.664 39.333 40.258 C 40.962 41.664 43.083 42.516 45.404 42.516 C 47.726 42.516 49.847 41.664 51.476 40.258 C 53.105 41.664 55.226 42.516 57.546 42.516 C 57.765 42.516 57.98 42.506 58.192 42.491 L 57.861 45.85 Z M 77.123 16.514 L 64.994 27.646 C 64.816 27.41 64.629 27.181 64.43 26.962 L 76.526 15.86 L 75.835 15.106 L 76.565 15.86 L 77.126 16.471 C 77.135 16.482 77.133 16.504 77.123 16.514 Z">
		</path>
	</g>
</svg>
